<mxfile host="app.diagrams.net" agent="Mozilla/5.0 (Windows NT 10.0; Win64; x64) AppleWebKit/537.36 (KHTML, like Gecko) Chrome/135.0.0.0 Safari/537.36" version="26.2.14">
  <diagram name="global" id="PEG4fmZPOcqcN3tmb9fP">
    <mxGraphModel dx="5895" dy="598" grid="0" gridSize="10" guides="1" tooltips="1" connect="1" arrows="1" fold="1" page="1" pageScale="1" pageWidth="4681" pageHeight="3300" background="#99CCFF" math="0" shadow="0">
      <root>
        <mxCell id="0" />
        <mxCell id="1" parent="0" />
        <mxCell id="eYIj9YyXecUdHDmmm4ep-8" value="&lt;div&gt;&lt;font style=&quot;color: rgb(0, 0, 255);&quot;&gt;&lt;br&gt;&lt;/font&gt;&lt;/div&gt;&lt;div&gt;&lt;font style=&quot;color: rgb(0, 0, 255);&quot;&gt;&lt;br&gt;&lt;/font&gt;&lt;/div&gt;&lt;div&gt;&lt;font style=&quot;color: rgb(0, 0, 255);&quot;&gt;&lt;br&gt;&lt;/font&gt;&lt;/div&gt;&lt;div&gt;&lt;font style=&quot;color: rgb(0, 0, 255);&quot;&gt;&lt;br&gt;&lt;/font&gt;&lt;/div&gt;&lt;div&gt;&lt;font style=&quot;color: rgb(0, 0, 255);&quot;&gt;&lt;br&gt;&lt;/font&gt;&lt;/div&gt;&lt;div&gt;&lt;font style=&quot;color: rgb(0, 0, 255);&quot;&gt;&lt;br&gt;&lt;/font&gt;&lt;/div&gt;&lt;div&gt;&lt;font style=&quot;color: rgb(0, 0, 255);&quot;&gt;&lt;br&gt;&lt;/font&gt;&lt;/div&gt;&lt;div&gt;&lt;font style=&quot;color: rgb(0, 0, 255);&quot;&gt;&lt;br&gt;&lt;/font&gt;&lt;/div&gt;&lt;div&gt;&lt;font style=&quot;color: rgb(0, 0, 255);&quot;&gt;&lt;br&gt;&lt;/font&gt;&lt;/div&gt;&lt;div&gt;&lt;font style=&quot;color: rgb(0, 0, 255);&quot;&gt;&lt;br&gt;&lt;/font&gt;&lt;/div&gt;&lt;div&gt;&lt;span style=&quot;background-color: transparent; color: light-dark(rgb(0, 0, 255), rgb(205, 205, 255));&quot;&gt;&lt;br&gt;&lt;/span&gt;&lt;/div&gt;&lt;div&gt;&lt;span style=&quot;background-color: transparent; color: light-dark(rgb(0, 0, 255), rgb(205, 205, 255));&quot;&gt;&lt;br&gt;&lt;/span&gt;&lt;/div&gt;&lt;div&gt;&lt;span style=&quot;background-color: transparent; color: light-dark(rgb(0, 0, 255), rgb(205, 205, 255));&quot;&gt;&lt;br&gt;&lt;/span&gt;&lt;/div&gt;&lt;div&gt;&lt;span style=&quot;background-color: transparent; color: light-dark(rgb(0, 0, 255), rgb(205, 205, 255));&quot;&gt;&lt;br&gt;&lt;/span&gt;&lt;/div&gt;&lt;div&gt;&lt;span style=&quot;background-color: transparent; color: light-dark(rgb(0, 0, 255), rgb(205, 205, 255));&quot;&gt;&lt;br&gt;&lt;/span&gt;&lt;/div&gt;&lt;div&gt;&lt;span style=&quot;background-color: transparent; color: light-dark(rgb(0, 0, 255), rgb(205, 205, 255));&quot;&gt;&lt;br&gt;&lt;/span&gt;&lt;/div&gt;&lt;div&gt;&lt;span style=&quot;background-color: transparent; color: light-dark(rgb(0, 0, 255), rgb(205, 205, 255));&quot;&gt;&lt;br&gt;&lt;/span&gt;&lt;/div&gt;&lt;div&gt;&lt;span style=&quot;background-color: transparent; color: light-dark(rgb(0, 0, 255), rgb(205, 205, 255));&quot;&gt;&lt;br&gt;&lt;/span&gt;&lt;/div&gt;&lt;div&gt;&lt;span style=&quot;background-color: transparent; color: light-dark(rgb(0, 0, 255), rgb(205, 205, 255));&quot;&gt;&lt;br&gt;&lt;/span&gt;&lt;/div&gt;&lt;div&gt;&lt;span style=&quot;background-color: transparent; color: light-dark(rgb(0, 0, 255), rgb(205, 205, 255));&quot;&gt;&lt;br&gt;&lt;/span&gt;&lt;/div&gt;&lt;div&gt;&lt;span style=&quot;background-color: transparent; color: light-dark(rgb(0, 0, 255), rgb(205, 205, 255));&quot;&gt;&lt;br&gt;&lt;/span&gt;&lt;/div&gt;&lt;div&gt;&lt;span style=&quot;background-color: transparent; color: light-dark(rgb(0, 0, 255), rgb(205, 205, 255));&quot;&gt;&lt;br&gt;&lt;/span&gt;&lt;/div&gt;&lt;div&gt;&lt;b style=&quot;background-color: transparent; color: light-dark(rgb(0, 0, 255), rgb(205, 205, 255));&quot;&gt;&lt;br&gt;&lt;/b&gt;&lt;/div&gt;&lt;div&gt;&lt;b style=&quot;background-color: transparent; color: light-dark(rgb(0, 0, 255), rgb(205, 205, 255));&quot;&gt;&lt;br&gt;&lt;/b&gt;&lt;/div&gt;&lt;div&gt;&lt;b style=&quot;background-color: transparent; color: light-dark(rgb(0, 0, 255), rgb(205, 205, 255));&quot;&gt;&lt;br&gt;&lt;/b&gt;&lt;/div&gt;&lt;div&gt;&lt;b style=&quot;background-color: transparent; color: light-dark(rgb(0, 0, 255), rgb(205, 205, 255));&quot;&gt;&lt;br&gt;&lt;/b&gt;&lt;/div&gt;&lt;div&gt;&lt;br&gt;&lt;/div&gt;&lt;div&gt;&lt;b style=&quot;background-color: transparent; color: light-dark(rgb(0, 0, 255), rgb(205, 205, 255));&quot;&gt;ETAPE 2&lt;/b&gt;&lt;/div&gt;" style="rounded=0;whiteSpace=wrap;html=1;fillColor=none;dashed=1;strokeColor=#0000FF;" parent="1" vertex="1">
          <mxGeometry x="-3552" y="969" width="274" height="411" as="geometry" />
        </mxCell>
        <mxCell id="ZqSi49jVPxYIq9pt5e5S-24" value="&lt;font style=&quot;color: rgb(153, 51, 255);&quot;&gt;&amp;nbsp; &amp;nbsp; &amp;nbsp; &amp;nbsp; &amp;nbsp; &amp;nbsp; &amp;nbsp; &amp;nbsp; &amp;nbsp; &amp;nbsp; &amp;nbsp; &amp;nbsp; &amp;nbsp; &amp;nbsp; &amp;nbsp; &lt;b&gt;LOAD&lt;/b&gt;&lt;/font&gt;&lt;div&gt;&lt;font style=&quot;color: rgb(153, 51, 255);&quot;&gt;&lt;br&gt;&lt;/font&gt;&lt;/div&gt;&lt;div&gt;&lt;font style=&quot;color: rgb(153, 51, 255);&quot;&gt;&lt;br&gt;&lt;/font&gt;&lt;/div&gt;&lt;div&gt;&lt;font style=&quot;color: rgb(153, 51, 255);&quot;&gt;&lt;br&gt;&lt;/font&gt;&lt;/div&gt;&lt;div&gt;&lt;font style=&quot;color: rgb(153, 51, 255);&quot;&gt;&lt;br&gt;&lt;/font&gt;&lt;/div&gt;&lt;div&gt;&lt;font style=&quot;color: rgb(153, 51, 255);&quot;&gt;&lt;br&gt;&lt;/font&gt;&lt;/div&gt;&lt;div&gt;&lt;font style=&quot;color: rgb(153, 51, 255);&quot;&gt;&lt;br&gt;&lt;/font&gt;&lt;/div&gt;&lt;div&gt;&lt;font style=&quot;color: rgb(153, 51, 255);&quot;&gt;&lt;br&gt;&lt;/font&gt;&lt;/div&gt;&lt;div&gt;&lt;font style=&quot;color: rgb(153, 51, 255);&quot;&gt;&lt;br&gt;&lt;/font&gt;&lt;/div&gt;&lt;div&gt;&lt;font style=&quot;color: rgb(153, 51, 255);&quot;&gt;&lt;br&gt;&lt;/font&gt;&lt;/div&gt;&lt;div&gt;&lt;font style=&quot;color: rgb(153, 51, 255);&quot;&gt;&lt;br&gt;&lt;/font&gt;&lt;/div&gt;&lt;div&gt;&lt;font style=&quot;color: rgb(153, 51, 255);&quot;&gt;&lt;br&gt;&lt;/font&gt;&lt;/div&gt;&lt;div&gt;&lt;br&gt;&lt;/div&gt;&lt;div&gt;&lt;br&gt;&lt;/div&gt;&lt;div&gt;&lt;br&gt;&lt;/div&gt;&lt;div&gt;&lt;br&gt;&lt;/div&gt;" style="rounded=1;whiteSpace=wrap;html=1;fillColor=#dae8fc;strokeColor=#6c8ebf;" parent="1" vertex="1">
          <mxGeometry x="-3479" y="1094" width="183" height="246" as="geometry" />
        </mxCell>
        <mxCell id="ZqSi49jVPxYIq9pt5e5S-25" value="&lt;div&gt;&lt;br&gt;&lt;/div&gt;&lt;div&gt;&amp;nbsp; &amp;nbsp; &amp;nbsp; &amp;nbsp; &amp;nbsp; &amp;nbsp; &amp;nbsp; &amp;nbsp; &amp;nbsp; &amp;nbsp; &amp;nbsp; &amp;nbsp; &amp;nbsp; Docker&lt;div&gt;&lt;br&gt;&lt;/div&gt;&lt;div&gt;&lt;br&gt;&lt;/div&gt;&lt;div&gt;&lt;br&gt;&lt;/div&gt;&lt;div&gt;&lt;br&gt;&lt;/div&gt;&lt;div&gt;&lt;br&gt;&lt;/div&gt;&lt;/div&gt;" style="rounded=1;whiteSpace=wrap;html=1;fillColor=#e1d5e7;strokeColor=#9673a6;" parent="1" vertex="1">
          <mxGeometry x="-3459" y="1122" width="139" height="85" as="geometry" />
        </mxCell>
        <mxCell id="eYIj9YyXecUdHDmmm4ep-7" value="&lt;div&gt;&lt;font style=&quot;color: rgb(0, 0, 255);&quot;&gt;&lt;br&gt;&lt;/font&gt;&lt;/div&gt;&lt;div&gt;&lt;font style=&quot;color: rgb(0, 0, 255);&quot;&gt;&lt;br&gt;&lt;/font&gt;&lt;/div&gt;&lt;div&gt;&lt;font style=&quot;color: rgb(0, 0, 255);&quot;&gt;&lt;br&gt;&lt;/font&gt;&lt;/div&gt;&lt;div&gt;&lt;font style=&quot;color: rgb(0, 0, 255);&quot;&gt;&lt;br&gt;&lt;/font&gt;&lt;/div&gt;&lt;div&gt;&lt;font style=&quot;color: rgb(0, 0, 255);&quot;&gt;&lt;br&gt;&lt;/font&gt;&lt;/div&gt;&lt;div&gt;&lt;font style=&quot;color: rgb(0, 0, 255);&quot;&gt;&lt;br&gt;&lt;/font&gt;&lt;/div&gt;&lt;div&gt;&lt;font style=&quot;color: rgb(0, 0, 255);&quot;&gt;&lt;br&gt;&lt;/font&gt;&lt;/div&gt;&lt;div&gt;&lt;font style=&quot;color: rgb(0, 0, 255);&quot;&gt;&lt;br&gt;&lt;/font&gt;&lt;/div&gt;&lt;div&gt;&lt;font style=&quot;color: rgb(0, 0, 255);&quot;&gt;&lt;br&gt;&lt;/font&gt;&lt;/div&gt;&lt;div&gt;&lt;font style=&quot;color: rgb(0, 0, 255);&quot;&gt;&lt;br&gt;&lt;/font&gt;&lt;/div&gt;&lt;div&gt;&lt;font style=&quot;color: rgb(0, 0, 255);&quot;&gt;&lt;br&gt;&lt;/font&gt;&lt;/div&gt;&lt;div&gt;&lt;font style=&quot;color: rgb(0, 0, 255);&quot;&gt;&lt;br&gt;&lt;/font&gt;&lt;/div&gt;&lt;div&gt;&lt;font style=&quot;color: rgb(0, 0, 255);&quot;&gt;&lt;br&gt;&lt;/font&gt;&lt;/div&gt;&lt;div&gt;&lt;font style=&quot;color: rgb(0, 0, 255);&quot;&gt;&lt;br&gt;&lt;/font&gt;&lt;/div&gt;&lt;div&gt;&lt;font style=&quot;color: rgb(0, 0, 255);&quot;&gt;&lt;br&gt;&lt;/font&gt;&lt;/div&gt;&lt;div&gt;&lt;font style=&quot;color: rgb(0, 0, 255);&quot;&gt;&lt;br&gt;&lt;/font&gt;&lt;/div&gt;&lt;div&gt;&lt;font style=&quot;color: rgb(0, 0, 255);&quot;&gt;&lt;br&gt;&lt;/font&gt;&lt;/div&gt;&lt;div&gt;&lt;font style=&quot;color: rgb(0, 0, 255);&quot;&gt;&lt;br&gt;&lt;/font&gt;&lt;/div&gt;&lt;div&gt;&lt;span style=&quot;background-color: transparent;&quot;&gt;&lt;font style=&quot;color: rgb(0, 0, 255);&quot;&gt;&lt;br&gt;&lt;/font&gt;&lt;/span&gt;&lt;/div&gt;&lt;div&gt;&lt;span style=&quot;background-color: transparent;&quot;&gt;&lt;font style=&quot;color: rgb(0, 0, 255);&quot;&gt;&lt;br&gt;&lt;/font&gt;&lt;/span&gt;&lt;/div&gt;&lt;div&gt;&lt;span style=&quot;background-color: transparent;&quot;&gt;&lt;font style=&quot;color: rgb(0, 0, 255);&quot;&gt;&lt;br&gt;&lt;/font&gt;&lt;/span&gt;&lt;/div&gt;&lt;div&gt;&lt;span style=&quot;background-color: transparent;&quot;&gt;&lt;font style=&quot;color: rgb(0, 0, 255);&quot;&gt;&lt;br&gt;&lt;/font&gt;&lt;/span&gt;&lt;/div&gt;&lt;div&gt;&lt;span style=&quot;background-color: transparent;&quot;&gt;&lt;font style=&quot;color: rgb(0, 0, 255);&quot;&gt;&lt;br&gt;&lt;/font&gt;&lt;/span&gt;&lt;/div&gt;&lt;div&gt;&lt;br&gt;&lt;/div&gt;&lt;div&gt;&lt;br&gt;&lt;/div&gt;&lt;div&gt;&lt;br&gt;&lt;/div&gt;&lt;div&gt;&lt;b style=&quot;background-color: transparent; color: light-dark(rgb(0, 0, 255), rgb(205, 205, 255));&quot;&gt;&lt;br&gt;&lt;/b&gt;&lt;/div&gt;&lt;div&gt;&lt;b style=&quot;background-color: transparent; color: light-dark(rgb(0, 0, 255), rgb(205, 205, 255));&quot;&gt;ETAPE 1&lt;/b&gt;&lt;/div&gt;" style="rounded=0;whiteSpace=wrap;html=1;fillColor=none;dashed=1;strokeWidth=1;strokeColor=#0000FF;" parent="1" vertex="1">
          <mxGeometry x="-4041" y="969" width="457" height="411" as="geometry" />
        </mxCell>
        <mxCell id="ZqSi49jVPxYIq9pt5e5S-23" value="&lt;div&gt;&lt;span style=&quot;color: light-dark(rgb(153, 51, 255), rgb(218, 131, 255)); background-color: transparent;&quot;&gt;&lt;br&gt;&lt;/span&gt;&lt;/div&gt;&lt;div&gt;&lt;span style=&quot;color: light-dark(rgb(153, 51, 255), rgb(218, 131, 255)); background-color: transparent;&quot;&gt;&amp;nbsp; &amp;nbsp; &amp;nbsp; &amp;nbsp; &amp;nbsp; &amp;nbsp; &amp;nbsp; &amp;nbsp; &amp;nbsp; &amp;nbsp; &amp;nbsp; &amp;nbsp; &amp;nbsp; &amp;nbsp; &amp;nbsp; &amp;nbsp; &amp;nbsp; &amp;nbsp; &amp;nbsp; &amp;nbsp; &amp;nbsp; &amp;nbsp; &amp;nbsp; &amp;nbsp; &amp;nbsp; &amp;nbsp; &amp;nbsp; &amp;nbsp; &amp;nbsp; &amp;nbsp; &amp;nbsp; &amp;nbsp; &amp;nbsp; &amp;nbsp; &amp;nbsp; &amp;nbsp; &amp;nbsp; &amp;nbsp; &amp;nbsp; &amp;nbsp; &amp;nbsp; &amp;nbsp; &amp;nbsp; &amp;nbsp; &amp;nbsp; &amp;nbsp;&amp;nbsp;&lt;/span&gt;&lt;b style=&quot;color: light-dark(rgb(153, 51, 255), rgb(218, 131, 255)); background-color: transparent;&quot;&gt;TRANSFORM (1)&lt;/b&gt;&lt;/div&gt;&lt;div&gt;&lt;font style=&quot;color: rgb(153, 51, 255);&quot;&gt;&lt;br&gt;&lt;/font&gt;&lt;/div&gt;&lt;div&gt;&lt;font style=&quot;color: rgb(153, 51, 255);&quot;&gt;&lt;br&gt;&lt;/font&gt;&lt;/div&gt;&lt;div&gt;&lt;font style=&quot;color: rgb(153, 51, 255);&quot;&gt;&lt;br&gt;&lt;/font&gt;&lt;/div&gt;&lt;div&gt;&lt;font style=&quot;color: rgb(153, 51, 255);&quot;&gt;&lt;br&gt;&lt;/font&gt;&lt;/div&gt;&lt;div&gt;&lt;font style=&quot;color: rgb(153, 51, 255);&quot;&gt;&lt;br&gt;&lt;/font&gt;&lt;/div&gt;&lt;div&gt;&lt;font style=&quot;color: rgb(153, 51, 255);&quot;&gt;&lt;br&gt;&lt;/font&gt;&lt;/div&gt;&lt;div&gt;&lt;font style=&quot;color: rgb(153, 51, 255);&quot;&gt;&lt;br&gt;&lt;/font&gt;&lt;/div&gt;&lt;div&gt;&lt;font style=&quot;color: rgb(153, 51, 255);&quot;&gt;&lt;br&gt;&lt;/font&gt;&lt;/div&gt;&lt;div&gt;&lt;font style=&quot;color: rgb(153, 51, 255);&quot;&gt;&lt;br&gt;&lt;/font&gt;&lt;/div&gt;&lt;div&gt;&lt;font style=&quot;color: rgb(153, 51, 255);&quot;&gt;&lt;br&gt;&lt;/font&gt;&lt;/div&gt;&lt;div&gt;&lt;br&gt;&lt;/div&gt;&lt;div&gt;&lt;br&gt;&lt;/div&gt;" style="rounded=1;whiteSpace=wrap;html=1;fillColor=#dae8fc;strokeColor=#6c8ebf;" parent="1" vertex="1">
          <mxGeometry x="-4030" y="1138" width="436" height="193" as="geometry" />
        </mxCell>
        <mxCell id="ZqSi49jVPxYIq9pt5e5S-21" value="&amp;nbsp; &amp;nbsp; &amp;nbsp; &amp;nbsp; &amp;nbsp; &amp;nbsp; &amp;nbsp; &amp;nbsp; &amp;nbsp; &amp;nbsp; &amp;nbsp; &amp;nbsp; &amp;nbsp; &amp;nbsp; &amp;nbsp; &amp;nbsp; &amp;nbsp; &amp;nbsp; &amp;nbsp; &amp;nbsp; &amp;nbsp; &amp;nbsp; &amp;nbsp; &amp;nbsp; &amp;nbsp; &amp;nbsp; &amp;nbsp; &amp;nbsp; &amp;nbsp; &amp;nbsp; &amp;nbsp; &amp;nbsp; &amp;nbsp; &amp;nbsp; &amp;nbsp; &amp;nbsp; &amp;nbsp; &amp;nbsp; &amp;nbsp; &amp;nbsp; &amp;nbsp; &amp;nbsp; &amp;nbsp; &amp;nbsp; &amp;nbsp; &amp;nbsp; &amp;nbsp; &amp;nbsp; &amp;nbsp; &amp;nbsp; &amp;nbsp; &amp;nbsp;&amp;nbsp;&lt;div&gt;&amp;nbsp; &amp;nbsp; &amp;nbsp; &amp;nbsp; &amp;nbsp; &amp;nbsp; &amp;nbsp; &amp;nbsp; &amp;nbsp; &amp;nbsp; &amp;nbsp; &amp;nbsp; &amp;nbsp; &amp;nbsp; &amp;nbsp; &amp;nbsp; &amp;nbsp; &amp;nbsp; &amp;nbsp; &amp;nbsp; &amp;nbsp; &amp;nbsp; &amp;nbsp; &amp;nbsp; &amp;nbsp; &amp;nbsp; &amp;nbsp; &amp;nbsp; &amp;nbsp; &amp;nbsp; &amp;nbsp; &amp;nbsp; &amp;nbsp; &amp;nbsp; &amp;nbsp; &amp;nbsp; &amp;nbsp; &amp;nbsp; &amp;nbsp; &amp;nbsp; &amp;nbsp; &amp;nbsp; &amp;nbsp; &amp;nbsp; &amp;nbsp; &amp;nbsp; &amp;nbsp; &amp;nbsp; &amp;nbsp; &amp;nbsp; &amp;nbsp; &amp;nbsp; &amp;nbsp;&lt;b&gt;&lt;font style=&quot;color: rgb(153, 51, 255);&quot;&gt;EXTRACT&lt;/font&gt;&lt;/b&gt;&lt;div&gt;&lt;br&gt;&lt;/div&gt;&lt;div&gt;&lt;br&gt;&lt;/div&gt;&lt;div&gt;&lt;br&gt;&lt;/div&gt;&lt;div&gt;&lt;br&gt;&lt;/div&gt;&lt;div&gt;&lt;br&gt;&lt;/div&gt;&lt;div&gt;&lt;br&gt;&lt;/div&gt;&lt;/div&gt;" style="rounded=1;whiteSpace=wrap;html=1;fillColor=#dae8fc;strokeColor=#6c8ebf;" parent="1" vertex="1">
          <mxGeometry x="-4028" y="992" width="434" height="107" as="geometry" />
        </mxCell>
        <mxCell id="eYIj9YyXecUdHDmmm4ep-2" value="&lt;b&gt;&amp;nbsp; PYTHON&lt;/b&gt;" style="swimlane;fontStyle=0;childLayout=stackLayout;horizontal=1;startSize=20;horizontalStack=0;resizeParent=1;resizeParentMax=0;resizeLast=0;collapsible=0;marginBottom=0;whiteSpace=wrap;html=1;fillColor=#ffe6cc;strokeColor=#d79b00;rounded=0;align=left;swimlaneLine=1;glass=0;shadow=0;swimlaneHead=1;swimlaneBody=1;connectable=1;allowArrows=1;container=1;verticalAlign=middle;fontFamily=Helvetica;fontSize=10;fontColor=default;" parent="1" vertex="1">
          <mxGeometry x="-3795" y="1020" width="186" height="55" as="geometry">
            <mxRectangle x="-3925" y="994" width="54" height="30" as="alternateBounds" />
          </mxGeometry>
        </mxCell>
        <mxCell id="eYIj9YyXecUdHDmmm4ep-18" value="&lt;font style=&quot;font-size: 10px; color: rgb(0, 0, 0);&quot;&gt;•&amp;nbsp; Récupération des offres d&#39;emploi par&amp;nbsp;&lt;/font&gt;&lt;div&gt;&lt;font style=&quot;font-size: 10px; color: rgb(0, 0, 0);&quot;&gt;&amp;nbsp; &amp;nbsp; &amp;nbsp;métier&amp;nbsp;&lt;/font&gt;&lt;span style=&quot;color: light-dark(rgb(0, 0, 0), rgb(237, 237, 237)); font-size: 10px; background-color: transparent;&quot;&gt;pour 61 métiers de la tech&lt;/span&gt;&lt;/div&gt;" style="text;align=left;verticalAlign=middle;spacingLeft=4;spacingRight=4;overflow=hidden;points=[[0,0.5],[1,0.5]];portConstraint=eastwest;rotatable=0;whiteSpace=wrap;html=1;fontFamily=Helvetica;fontSize=12;fontStyle=0;fillColor=#f5f5f5;fontColor=#333333;strokeColor=none;" parent="eYIj9YyXecUdHDmmm4ep-2" vertex="1">
          <mxGeometry y="20" width="186" height="35" as="geometry" />
        </mxCell>
        <mxCell id="eYIj9YyXecUdHDmmm4ep-9" value="&lt;b&gt;&amp;nbsp; PYTHON&lt;/b&gt;" style="swimlane;fontStyle=0;childLayout=stackLayout;horizontal=1;startSize=20;horizontalStack=0;resizeParent=1;resizeParentMax=0;resizeLast=0;collapsible=0;marginBottom=0;whiteSpace=wrap;html=1;fillColor=#ffe6cc;strokeColor=#d79b00;rounded=0;shadow=0;glass=0;align=left;verticalAlign=middle;fontFamily=Helvetica;fontSize=10;fontColor=default;" parent="1" vertex="1">
          <mxGeometry x="-3465" y="1224" width="154" height="90" as="geometry">
            <mxRectangle x="-3715" y="1075" width="54" height="30" as="alternateBounds" />
          </mxGeometry>
        </mxCell>
        <mxCell id="eYIj9YyXecUdHDmmm4ep-10" value="•&amp;nbsp; Récupération de valeurs et&amp;nbsp;&lt;div&gt;&amp;nbsp; &amp;nbsp; écriture en base de données&lt;/div&gt;" style="text;strokeColor=none;fillColor=#f5f5f5;align=left;verticalAlign=middle;spacingLeft=4;spacingRight=4;overflow=hidden;points=[[0,0.5],[1,0.5]];portConstraint=eastwest;rotatable=0;whiteSpace=wrap;html=1;fontFamily=Helvetica;fontSize=10;fontColor=#333333;fontStyle=0;" parent="eYIj9YyXecUdHDmmm4ep-9" vertex="1">
          <mxGeometry y="20" width="154" height="35" as="geometry" />
        </mxCell>
        <mxCell id="QMZ0epN5G2BQHD_irtJm-1" value="•&amp;nbsp; Exécution des requêtes de&lt;div&gt;&lt;span style=&quot;background-color: transparent; color: light-dark(rgb(51, 51, 51), rgb(193, 193, 193));&quot;&gt;&amp;nbsp; &amp;nbsp; transformations (2)&lt;/span&gt;&lt;/div&gt;" style="text;strokeColor=none;fillColor=#f5f5f5;align=left;verticalAlign=middle;spacingLeft=4;spacingRight=4;overflow=hidden;points=[[0,0.5],[1,0.5]];portConstraint=eastwest;rotatable=0;whiteSpace=wrap;html=1;fontFamily=Helvetica;fontSize=10;fontColor=#333333;fontStyle=0;" vertex="1" parent="eYIj9YyXecUdHDmmm4ep-9">
          <mxGeometry y="55" width="154" height="35" as="geometry" />
        </mxCell>
        <mxCell id="eYIj9YyXecUdHDmmm4ep-14" value="&lt;b&gt;&amp;nbsp; MODELISATION DES DONNEES&lt;/b&gt;" style="swimlane;fontStyle=0;childLayout=stackLayout;horizontal=1;startSize=20;horizontalStack=0;resizeParent=1;resizeParentMax=0;resizeLast=0;collapsible=0;marginBottom=0;whiteSpace=wrap;html=1;fillColor=#ffe6cc;strokeColor=#D79B00;rounded=0;shadow=0;glass=0;align=left;verticalAlign=middle;fontFamily=Helvetica;fontSize=10;fontColor=default;swimlaneLine=0;gradientColor=none;" parent="1" vertex="1">
          <mxGeometry x="-3521" y="995" width="213" height="65" as="geometry">
            <mxRectangle x="-3715" y="1075" width="54" height="30" as="alternateBounds" />
          </mxGeometry>
        </mxCell>
        <mxCell id="eYIj9YyXecUdHDmmm4ep-15" value="•&amp;nbsp;&amp;nbsp;Diagramme UML (modèle snowflake)&lt;span style=&quot;background-color: transparent; color: light-dark(rgb(51, 51, 51), rgb(193, 193, 193));&quot;&gt;&amp;nbsp;avec&lt;/span&gt;&lt;div&gt;&lt;span style=&quot;background-color: transparent; color: light-dark(rgb(51, 51, 51), rgb(193, 193, 193));&quot;&gt;&amp;nbsp; &amp;nbsp; 19 tables, xx attributs (dont x&amp;nbsp;&lt;/span&gt;&lt;span style=&quot;background-color: transparent; color: light-dark(rgb(51, 51, 51), rgb(193, 193, 193));&quot;&gt;nouveaux)&lt;/span&gt;&lt;/div&gt;" style="text;strokeColor=none;fillColor=#f5f5f5;align=left;verticalAlign=middle;spacingLeft=4;spacingRight=4;overflow=hidden;points=[[0,0.5],[1,0.5]];portConstraint=eastwest;rotatable=0;whiteSpace=wrap;html=1;fontFamily=Helvetica;fontSize=10;fontColor=#333333;fontStyle=0;" parent="eYIj9YyXecUdHDmmm4ep-14" vertex="1">
          <mxGeometry y="20" width="213" height="45" as="geometry" />
        </mxCell>
        <mxCell id="eYIj9YyXecUdHDmmm4ep-16" value="&lt;b&gt;&amp;nbsp; PostgreSQL&lt;/b&gt;" style="swimlane;fontStyle=0;childLayout=stackLayout;horizontal=1;startSize=20;horizontalStack=0;resizeParent=1;resizeParentMax=0;resizeLast=0;collapsible=0;marginBottom=0;whiteSpace=wrap;html=1;fillColor=#ffe6cc;strokeColor=#d79b00;rounded=0;shadow=0;glass=0;align=left;verticalAlign=middle;fontFamily=Helvetica;fontSize=10;fontColor=default;" parent="1" vertex="1">
          <mxGeometry x="-3444" y="1146" width="108" height="45" as="geometry">
            <mxRectangle x="-3715" y="1075" width="54" height="30" as="alternateBounds" />
          </mxGeometry>
        </mxCell>
        <mxCell id="eYIj9YyXecUdHDmmm4ep-17" value="•&amp;nbsp;&amp;nbsp;Création des tables" style="text;strokeColor=none;fillColor=#f5f5f5;align=left;verticalAlign=middle;spacingLeft=4;spacingRight=4;overflow=hidden;points=[[0,0.5],[1,0.5]];portConstraint=eastwest;rotatable=0;whiteSpace=wrap;html=1;fontFamily=Helvetica;fontSize=10;fontColor=#333333;fontStyle=0;" parent="eYIj9YyXecUdHDmmm4ep-16" vertex="1">
          <mxGeometry y="20" width="108" height="25" as="geometry" />
        </mxCell>
        <mxCell id="eYIj9YyXecUdHDmmm4ep-19" value="&lt;b&gt;&lt;font style=&quot;font-size: 10px;&quot;&gt;&amp;nbsp; PYTHON&lt;/font&gt;&lt;/b&gt;" style="swimlane;fontStyle=0;childLayout=stackLayout;horizontal=1;startSize=20;horizontalStack=0;resizeParent=1;resizeParentMax=0;resizeLast=0;collapsible=0;marginBottom=0;whiteSpace=wrap;html=1;fillColor=#ffe6cc;strokeColor=#d79b00;rounded=0;align=left;shadow=0;glass=0;verticalAlign=middle;fontFamily=Helvetica;fontSize=12;" parent="1" vertex="1">
          <mxGeometry x="-4015" y="1168" width="403" height="140" as="geometry">
            <mxRectangle x="-3715" y="1075" width="54" height="30" as="alternateBounds" />
          </mxGeometry>
        </mxCell>
        <mxCell id="eYIj9YyXecUdHDmmm4ep-22" value="•&amp;nbsp;&amp;nbsp;Consolidation des fichiers&amp;nbsp;&lt;span style=&quot;color: light-dark(rgb(0, 0, 0), rgb(255, 255, 255)); background-color: transparent;&quot;&gt;avec suppression de doublons&lt;/span&gt;" style="text;strokeColor=none;fillColor=#f5f5f5;align=left;verticalAlign=middle;spacingLeft=4;spacingRight=4;overflow=hidden;points=[[0,0.5],[1,0.5]];portConstraint=eastwest;rotatable=0;whiteSpace=wrap;html=1;fontFamily=Helvetica;fontSize=10;fontColor=#333333;fontStyle=0;" parent="eYIj9YyXecUdHDmmm4ep-19" vertex="1">
          <mxGeometry y="20" width="403" height="25" as="geometry" />
        </mxCell>
        <mxCell id="qPR0wcIL-JMc3A2nSYoO-2" value="•&amp;nbsp;&amp;nbsp;Conservation des offres en France Métropolitaine uniquement" style="text;strokeColor=none;fillColor=#f5f5f5;align=left;verticalAlign=middle;spacingLeft=4;spacingRight=4;overflow=hidden;points=[[0,0.5],[1,0.5]];portConstraint=eastwest;rotatable=0;whiteSpace=wrap;html=1;fontFamily=Helvetica;fontSize=10;fontColor=#333333;fontStyle=0;" parent="eYIj9YyXecUdHDmmm4ep-19" vertex="1">
          <mxGeometry y="45" width="403" height="25" as="geometry" />
        </mxCell>
        <mxCell id="eYIj9YyXecUdHDmmm4ep-23" value="•&amp;nbsp;&amp;nbsp;Ajout des attributs &lt;span style=&quot;background-color: rgb(230, 255, 204);&quot;&gt;nom_commune&lt;/span&gt;, &lt;span style=&quot;background-color: rgb(230, 255, 204);&quot;&gt;nom_ville&lt;/span&gt;, &lt;span style=&quot;background-color: rgb(230, 255, 204);&quot;&gt;code_departement&lt;/span&gt;, &lt;span style=&quot;background-color: rgb(230, 255, 204);&quot;&gt;nom_departement&lt;/span&gt;,&amp;nbsp;&lt;div&gt;&lt;span style=&quot;background-color: rgb(230, 255, 204);&quot;&gt;&amp;nbsp; &amp;nbsp; code_region&lt;/span&gt;, &lt;span style=&quot;background-color: rgb(230, 255, 204);&quot;&gt;nom_region&lt;/span&gt;&amp;nbsp;&lt;span style=&quot;background-color: transparent; color: light-dark(rgb(51, 51, 51), rgb(193, 193, 193));&quot;&gt;à partir&amp;nbsp;&lt;/span&gt;&lt;span style=&quot;background-color: transparent; color: light-dark(rgb(51, 51, 51), rgb(193, 193, 193));&quot;&gt;du code insee, coordonnées GPS et autres infos&lt;/span&gt;&lt;/div&gt;" style="text;strokeColor=none;fillColor=#f5f5f5;align=left;verticalAlign=middle;spacingLeft=4;spacingRight=4;overflow=hidden;points=[[0,0.5],[1,0.5]];portConstraint=eastwest;rotatable=0;whiteSpace=wrap;html=1;fontFamily=Helvetica;fontSize=10;fontColor=#333333;fontStyle=0;" parent="eYIj9YyXecUdHDmmm4ep-19" vertex="1">
          <mxGeometry y="70" width="403" height="35" as="geometry" />
        </mxCell>
        <mxCell id="qPR0wcIL-JMc3A2nSYoO-1" value="•&amp;nbsp;&amp;nbsp;Ajout des attributs &lt;span style=&quot;background-color: rgb(230, 255, 204);&quot;&gt;date_extraction&lt;/span&gt; et &lt;span style=&quot;background-color: rgb(230, 255, 204);&quot;&gt;date_premiere_ecriture&lt;/span&gt; pour connaitre&amp;nbsp;&lt;div&gt;&amp;nbsp; &amp;nbsp; la date d&#39;extraction et la&amp;nbsp;&lt;span style=&quot;background-color: transparent; color: light-dark(rgb(51, 51, 51), rgb(193, 193, 193));&quot;&gt;date où on écrit la première fois dans la base&lt;/span&gt;&lt;/div&gt;" style="text;strokeColor=none;fillColor=#f5f5f5;align=left;verticalAlign=middle;spacingLeft=4;spacingRight=4;overflow=hidden;points=[[0,0.5],[1,0.5]];portConstraint=eastwest;rotatable=0;whiteSpace=wrap;html=1;fontFamily=Helvetica;fontSize=10;fontColor=#333333;fontStyle=0;" parent="eYIj9YyXecUdHDmmm4ep-19" vertex="1">
          <mxGeometry y="105" width="403" height="35" as="geometry" />
        </mxCell>
        <mxCell id="eYIj9YyXecUdHDmmm4ep-27" style="edgeStyle=orthogonalEdgeStyle;rounded=0;orthogonalLoop=1;jettySize=auto;html=1;exitX=0.5;exitY=1;exitDx=0;exitDy=0;curved=1;entryX=0.5;entryY=0;entryDx=0;entryDy=0;" parent="1" source="eYIj9YyXecUdHDmmm4ep-25" target="eYIj9YyXecUdHDmmm4ep-2" edge="1">
          <mxGeometry relative="1" as="geometry">
            <mxPoint x="-3723" y="1020" as="targetPoint" />
          </mxGeometry>
        </mxCell>
        <mxCell id="eYIj9YyXecUdHDmmm4ep-25" value="API&amp;nbsp;&lt;div&gt;&lt;span style=&quot;background-color: transparent; color: light-dark(rgb(0, 0, 0), rgb(255, 255, 255));&quot;&gt;&quot;Offres d&#39;emploi v2&quot;&lt;/span&gt;&lt;/div&gt;" style="rounded=1;whiteSpace=wrap;html=1;fillColor=#e1d5e7;strokeColor=#9673a6;fontSize=10;" parent="1" vertex="1">
          <mxGeometry x="-3717" y="909" width="102" height="35" as="geometry" />
        </mxCell>
        <mxCell id="eYIj9YyXecUdHDmmm4ep-28" style="edgeStyle=orthogonalEdgeStyle;rounded=0;orthogonalLoop=1;jettySize=auto;html=1;entryX=0.556;entryY=0.003;entryDx=0;entryDy=0;entryPerimeter=0;curved=1;" parent="1" source="eYIj9YyXecUdHDmmm4ep-2" target="eYIj9YyXecUdHDmmm4ep-19" edge="1">
          <mxGeometry relative="1" as="geometry">
            <Array as="points">
              <mxPoint x="-3702" y="1108" />
              <mxPoint x="-3791" y="1108" />
            </Array>
          </mxGeometry>
        </mxCell>
        <mxCell id="eYIj9YyXecUdHDmmm4ep-29" value="61 fichiers .json" style="text;html=1;align=center;verticalAlign=middle;whiteSpace=wrap;rounded=0;fontSize=10;" parent="1" vertex="1">
          <mxGeometry x="-3759" y="1105" width="83" height="30" as="geometry" />
        </mxCell>
        <mxCell id="eYIj9YyXecUdHDmmm4ep-31" style="edgeStyle=orthogonalEdgeStyle;rounded=0;orthogonalLoop=1;jettySize=auto;html=1;entryX=0;entryY=0.5;entryDx=0;entryDy=0;curved=1;exitX=1.001;exitY=0.082;exitDx=0;exitDy=0;exitPerimeter=0;" parent="1" source="eYIj9YyXecUdHDmmm4ep-19" target="eYIj9YyXecUdHDmmm4ep-10" edge="1">
          <mxGeometry relative="1" as="geometry" />
        </mxCell>
        <mxCell id="eYIj9YyXecUdHDmmm4ep-32" value="1 fichier .json" style="text;html=1;align=center;verticalAlign=middle;whiteSpace=wrap;rounded=0;fontSize=10;" parent="1" vertex="1">
          <mxGeometry x="-3550" y="1253" width="77" height="30" as="geometry" />
        </mxCell>
        <mxCell id="ZqSi49jVPxYIq9pt5e5S-6" value="requests" style="ellipse;whiteSpace=wrap;html=1;fontSize=8;fillColor=#d5e8d4;strokeColor=#82b366;" parent="1" vertex="1">
          <mxGeometry x="-3660" y="1021" width="44" height="18" as="geometry" />
        </mxCell>
        <mxCell id="ZqSi49jVPxYIq9pt5e5S-15" value="pandas" style="ellipse;whiteSpace=wrap;html=1;fontSize=8;fillColor=#d5e8d4;strokeColor=#82b366;" parent="1" vertex="1">
          <mxGeometry x="-3664" y="1169" width="44" height="18" as="geometry" />
        </mxCell>
        <mxCell id="ZqSi49jVPxYIq9pt5e5S-16" value="psycopg2" style="ellipse;whiteSpace=wrap;html=1;fontSize=8;fillColor=#d5e8d4;strokeColor=#82b366;" parent="1" vertex="1">
          <mxGeometry x="-3361" y="1225" width="44" height="18" as="geometry" />
        </mxCell>
        <mxCell id="ZqSi49jVPxYIq9pt5e5S-26" value="&lt;div&gt;&lt;font style=&quot;color: rgb(0, 0, 255);&quot;&gt;&lt;br&gt;&lt;/font&gt;&lt;/div&gt;&lt;div&gt;&lt;font style=&quot;color: rgb(0, 0, 255);&quot;&gt;&lt;br&gt;&lt;/font&gt;&lt;/div&gt;&lt;div&gt;&lt;font style=&quot;color: rgb(0, 0, 255);&quot;&gt;&lt;br&gt;&lt;/font&gt;&lt;/div&gt;&lt;div&gt;&lt;font style=&quot;color: rgb(0, 0, 255);&quot;&gt;&lt;br&gt;&lt;/font&gt;&lt;/div&gt;&lt;div&gt;&lt;font style=&quot;color: rgb(0, 0, 255);&quot;&gt;&lt;br&gt;&lt;/font&gt;&lt;/div&gt;&lt;div&gt;&lt;font style=&quot;color: rgb(0, 0, 255);&quot;&gt;&lt;br&gt;&lt;/font&gt;&lt;/div&gt;&lt;div&gt;&lt;font style=&quot;color: rgb(0, 0, 255);&quot;&gt;&lt;br&gt;&lt;/font&gt;&lt;/div&gt;&lt;div&gt;&lt;font style=&quot;color: rgb(0, 0, 255);&quot;&gt;&lt;br&gt;&lt;/font&gt;&lt;/div&gt;&lt;div&gt;&lt;font style=&quot;color: rgb(0, 0, 255);&quot;&gt;&lt;br&gt;&lt;/font&gt;&lt;/div&gt;&lt;div&gt;&lt;font style=&quot;color: rgb(0, 0, 255);&quot;&gt;&lt;br&gt;&lt;/font&gt;&lt;/div&gt;&lt;div&gt;&lt;span style=&quot;background-color: transparent; color: light-dark(rgb(0, 0, 255), rgb(205, 205, 255));&quot;&gt;&lt;br&gt;&lt;/span&gt;&lt;/div&gt;&lt;div&gt;&lt;span style=&quot;background-color: transparent; color: light-dark(rgb(0, 0, 255), rgb(205, 205, 255));&quot;&gt;&lt;br&gt;&lt;/span&gt;&lt;/div&gt;&lt;div&gt;&lt;span style=&quot;background-color: transparent; color: light-dark(rgb(0, 0, 255), rgb(205, 205, 255));&quot;&gt;&lt;br&gt;&lt;/span&gt;&lt;/div&gt;&lt;div&gt;&lt;span style=&quot;background-color: transparent; color: light-dark(rgb(0, 0, 255), rgb(205, 205, 255));&quot;&gt;&lt;br&gt;&lt;/span&gt;&lt;/div&gt;&lt;div&gt;&lt;br&gt;&lt;/div&gt;&lt;div&gt;&lt;br&gt;&lt;/div&gt;&lt;div&gt;&lt;br&gt;&lt;/div&gt;&lt;div&gt;&lt;br&gt;&lt;/div&gt;&lt;div&gt;&lt;br&gt;&lt;/div&gt;&lt;div&gt;&lt;br&gt;&lt;/div&gt;&lt;div&gt;&lt;br&gt;&lt;/div&gt;&lt;div&gt;&lt;span style=&quot;background-color: transparent; color: light-dark(rgb(0, 0, 255), rgb(205, 205, 255));&quot;&gt;&lt;br&gt;&lt;/span&gt;&lt;/div&gt;&lt;div&gt;&lt;span style=&quot;background-color: transparent; color: light-dark(rgb(0, 0, 255), rgb(205, 205, 255));&quot;&gt;&lt;br&gt;&lt;/span&gt;&lt;/div&gt;&lt;div&gt;&lt;span style=&quot;background-color: transparent; color: light-dark(rgb(0, 0, 255), rgb(205, 205, 255));&quot;&gt;&lt;br&gt;&lt;/span&gt;&lt;/div&gt;&lt;div&gt;&lt;span style=&quot;background-color: transparent; color: light-dark(rgb(0, 0, 255), rgb(205, 205, 255));&quot;&gt;&lt;br&gt;&lt;/span&gt;&lt;/div&gt;&lt;div&gt;&lt;span style=&quot;background-color: transparent; color: light-dark(rgb(0, 0, 255), rgb(205, 205, 255));&quot;&gt;&lt;br&gt;&lt;/span&gt;&lt;/div&gt;&lt;div&gt;&lt;br&gt;&lt;/div&gt;&lt;div&gt;&lt;b style=&quot;background-color: transparent; color: light-dark(rgb(0, 0, 255), rgb(205, 205, 255));&quot;&gt;ETAPE 3&lt;/b&gt;&lt;/div&gt;" style="rounded=0;whiteSpace=wrap;html=1;fillColor=none;dashed=1;strokeColor=#0000FF;" parent="1" vertex="1">
          <mxGeometry x="-3247" y="968" width="325" height="412" as="geometry" />
        </mxCell>
        <mxCell id="ZqSi49jVPxYIq9pt5e5S-31" value="&lt;b&gt;&amp;nbsp; POWER BI&lt;/b&gt;" style="swimlane;fontStyle=0;childLayout=stackLayout;horizontal=1;startSize=20;horizontalStack=0;resizeParent=1;resizeParentMax=0;resizeLast=0;collapsible=0;marginBottom=0;whiteSpace=wrap;html=1;fillColor=#ffe6cc;strokeColor=#d79b00;rounded=0;align=left;swimlaneLine=1;glass=0;shadow=0;swimlaneHead=1;swimlaneBody=1;connectable=1;allowArrows=1;container=1;verticalAlign=middle;fontFamily=Helvetica;fontSize=10;fontColor=default;" parent="1" vertex="1">
          <mxGeometry x="-3167.5" y="1009" width="191" height="70" as="geometry">
            <mxRectangle x="-3925" y="994" width="54" height="30" as="alternateBounds" />
          </mxGeometry>
        </mxCell>
        <mxCell id="ZqSi49jVPxYIq9pt5e5S-32" value="&lt;font style=&quot;font-size: 10px; color: rgb(0, 0, 0);&quot;&gt;•&amp;nbsp; Connexion à la session PostGreSQL&lt;/font&gt;" style="text;align=left;verticalAlign=middle;spacingLeft=4;spacingRight=4;overflow=hidden;points=[[0,0.5],[1,0.5]];portConstraint=eastwest;rotatable=0;whiteSpace=wrap;html=1;fontFamily=Helvetica;fontSize=12;fontStyle=0;fillColor=#f5f5f5;fontColor=#333333;strokeColor=none;" parent="ZqSi49jVPxYIq9pt5e5S-31" vertex="1">
          <mxGeometry y="20" width="191" height="25" as="geometry" />
        </mxCell>
        <mxCell id="-rZxHQYXAFOoNfdk5uPC-2" value="&lt;font style=&quot;font-size: 10px; color: rgb(0, 0, 0);&quot;&gt;•&amp;nbsp; Création de rapports (dataviz)&lt;/font&gt;" style="text;align=left;verticalAlign=middle;spacingLeft=4;spacingRight=4;overflow=hidden;points=[[0,0.5],[1,0.5]];portConstraint=eastwest;rotatable=0;whiteSpace=wrap;html=1;fontFamily=Helvetica;fontSize=12;fontStyle=0;fillColor=#f5f5f5;fontColor=#333333;strokeColor=none;" parent="ZqSi49jVPxYIq9pt5e5S-31" vertex="1">
          <mxGeometry y="45" width="191" height="25" as="geometry" />
        </mxCell>
        <mxCell id="BL1sSyGnwAxIdbxrwCoB-6" value="&lt;b&gt;&amp;nbsp; PYTHON&lt;/b&gt;" style="swimlane;fontStyle=0;childLayout=stackLayout;horizontal=1;startSize=20;horizontalStack=0;resizeParent=1;resizeParentMax=0;resizeLast=0;collapsible=0;marginBottom=0;whiteSpace=wrap;html=1;fillColor=#ffe6cc;strokeColor=#d79b00;rounded=0;align=left;swimlaneLine=1;glass=0;shadow=0;swimlaneHead=1;swimlaneBody=1;connectable=1;allowArrows=1;container=1;verticalAlign=middle;fontFamily=Helvetica;fontSize=10;fontColor=default;" parent="1" vertex="1">
          <mxGeometry x="-4015" y="1020" width="208" height="55" as="geometry">
            <mxRectangle x="-3925" y="994" width="54" height="30" as="alternateBounds" />
          </mxGeometry>
        </mxCell>
        <mxCell id="BL1sSyGnwAxIdbxrwCoB-7" value="&lt;font style=&quot;font-size: 10px; color: rgb(0, 0, 0);&quot;&gt;•&amp;nbsp; Téléchargement de fichiers et merge&amp;nbsp;&lt;/font&gt;&lt;span style=&quot;background-color: transparent; color: light-dark(rgb(0, 0, 0), rgb(237, 237, 237)); font-size: 10px;&quot;&gt;pour&amp;nbsp;&lt;/span&gt;&lt;div&gt;&lt;span style=&quot;background-color: transparent; color: light-dark(rgb(0, 0, 0), rgb(237, 237, 237)); font-size: 10px;&quot;&gt;&amp;nbsp; &amp;nbsp; avoir ces informations dans 1 fichier .csv&lt;/span&gt;&lt;/div&gt;" style="text;align=left;verticalAlign=middle;spacingLeft=4;spacingRight=4;overflow=hidden;points=[[0,0.5],[1,0.5]];portConstraint=eastwest;rotatable=0;whiteSpace=wrap;html=1;fontFamily=Helvetica;fontSize=12;fontStyle=0;fillColor=#f5f5f5;fontColor=#333333;strokeColor=none;" parent="BL1sSyGnwAxIdbxrwCoB-6" vertex="1">
          <mxGeometry y="20" width="208" height="35" as="geometry" />
        </mxCell>
        <mxCell id="BL1sSyGnwAxIdbxrwCoB-8" value="pandas" style="ellipse;whiteSpace=wrap;html=1;fontSize=8;fillColor=#d5e8d4;strokeColor=#82b366;" parent="1" vertex="1">
          <mxGeometry x="-3856" y="1021" width="44" height="18" as="geometry" />
        </mxCell>
        <mxCell id="BL1sSyGnwAxIdbxrwCoB-10" style="edgeStyle=orthogonalEdgeStyle;rounded=0;orthogonalLoop=1;jettySize=auto;html=1;curved=1;entryX=0.558;entryY=-0.005;entryDx=0;entryDy=0;entryPerimeter=0;exitX=0.5;exitY=1;exitDx=0;exitDy=0;" parent="1" source="GoGkWiDGdS2pF1R7IaA1-3" target="BL1sSyGnwAxIdbxrwCoB-6" edge="1">
          <mxGeometry relative="1" as="geometry">
            <mxPoint x="-3818" y="959" as="sourcePoint" />
            <mxPoint x="-3931" y="1033" as="targetPoint" />
          </mxGeometry>
        </mxCell>
        <mxCell id="BL1sSyGnwAxIdbxrwCoB-17" style="edgeStyle=orthogonalEdgeStyle;rounded=0;orthogonalLoop=1;jettySize=auto;html=1;exitX=0.5;exitY=1;exitDx=0;exitDy=0;curved=1;entryX=0.447;entryY=-0.013;entryDx=0;entryDy=0;entryPerimeter=0;" parent="1" source="GoGkWiDGdS2pF1R7IaA1-2" target="BL1sSyGnwAxIdbxrwCoB-6" edge="1">
          <mxGeometry relative="1" as="geometry">
            <mxPoint x="-3947" y="944" as="sourcePoint" />
            <mxPoint x="-4034.29" y="1039.47" as="targetPoint" />
          </mxGeometry>
        </mxCell>
        <mxCell id="BL1sSyGnwAxIdbxrwCoB-20" value="FRANCE TRAVAIL" style="text;html=1;align=center;verticalAlign=middle;resizable=0;points=[];autosize=1;strokeColor=none;fillColor=none;fontSize=8;" parent="1" vertex="1">
          <mxGeometry x="-3697" y="894" width="85" height="22" as="geometry" />
        </mxCell>
        <mxCell id="BL1sSyGnwAxIdbxrwCoB-21" value="geopy" style="ellipse;whiteSpace=wrap;html=1;fontSize=8;fillColor=#d5e8d4;strokeColor=#82b366;" parent="1" vertex="1">
          <mxGeometry x="-3712" y="1169" width="44" height="18" as="geometry" />
        </mxCell>
        <mxCell id="GoGkWiDGdS2pF1R7IaA1-2" value="&lt;div&gt;&quot;noms / codes&quot;&amp;nbsp;&lt;span style=&quot;background-color: transparent; color: light-dark(rgb(0, 0, 0), rgb(255, 255, 255));&quot;&gt;des&lt;/span&gt;&lt;/div&gt;&lt;div&gt;&quot;villes&quot;&lt;/div&gt;" style="rounded=1;whiteSpace=wrap;html=1;fillColor=#e1d5e7;strokeColor=#9673a6;fontSize=10;container=0;enumerate=0;" parent="1" vertex="1">
          <mxGeometry x="-4028" y="908" width="98" height="35" as="geometry" />
        </mxCell>
        <mxCell id="GoGkWiDGdS2pF1R7IaA1-3" value="&lt;div&gt;&lt;span style=&quot;background-color: transparent; color: light-dark(rgb(0, 0, 0), rgb(255, 255, 255));&quot;&gt;&quot;noms / codes&quot;&amp;nbsp;&lt;/span&gt;&lt;span style=&quot;background-color: transparent; color: light-dark(rgb(0, 0, 0), rgb(255, 255, 255));&quot;&gt;des&amp;nbsp;&lt;/span&gt;&lt;/div&gt;&lt;div&gt;&lt;span style=&quot;background-color: transparent; color: light-dark(rgb(0, 0, 0), rgb(255, 255, 255));&quot;&gt;&quot;communes / départements / régions&quot;&lt;/span&gt;&lt;/div&gt;" style="rounded=1;whiteSpace=wrap;html=1;fillColor=#e1d5e7;strokeColor=#9673a6;fontSize=10;" parent="1" vertex="1">
          <mxGeometry x="-3920" y="908" width="180" height="35" as="geometry" />
        </mxCell>
        <mxCell id="GoGkWiDGdS2pF1R7IaA1-4" value="INSEE" style="text;html=1;align=center;verticalAlign=middle;resizable=0;points=[];autosize=1;strokeColor=none;fillColor=none;fontSize=8;" parent="1" vertex="1">
          <mxGeometry x="-3778" y="893" width="42" height="22" as="geometry" />
        </mxCell>
        <mxCell id="GoGkWiDGdS2pF1R7IaA1-5" value="DATA.GOUV" style="text;html=1;align=center;verticalAlign=middle;resizable=0;points=[];autosize=1;strokeColor=none;fillColor=none;fontSize=8;" parent="1" vertex="1">
          <mxGeometry x="-3991" y="893" width="64" height="22" as="geometry" />
        </mxCell>
        <mxCell id="-rZxHQYXAFOoNfdk5uPC-3" value="&lt;div&gt;&lt;font style=&quot;color: rgb(153, 51, 255);&quot;&gt;&lt;span style=&quot;background-color: transparent;&quot;&gt;&amp;nbsp; &amp;nbsp; &amp;nbsp; &amp;nbsp; &amp;nbsp; &amp;nbsp; &amp;nbsp; &amp;nbsp; &amp;nbsp; &amp;nbsp; &amp;nbsp; &amp;nbsp; &amp;nbsp;&lt;/span&gt;&lt;/font&gt;&lt;span style=&quot;color: light-dark(rgb(153, 51, 255), rgb(218, 131, 255)); background-color: transparent;&quot;&gt;&amp;nbsp; &amp;nbsp; &amp;nbsp; &amp;nbsp; &amp;nbsp; &amp;nbsp; &amp;nbsp; &amp;nbsp; &amp;nbsp;&amp;nbsp;&lt;/span&gt;&lt;b style=&quot;color: light-dark(rgb(153, 51, 255), rgb(218, 131, 255)); background-color: transparent;&quot;&gt;TRANSFORM (2)&lt;/b&gt;&lt;/div&gt;&lt;div&gt;&lt;b style=&quot;background-color: transparent;&quot;&gt;&lt;font style=&quot;color: rgb(153, 51, 255);&quot;&gt;&lt;br&gt;&lt;/font&gt;&lt;/b&gt;&lt;/div&gt;&lt;div&gt;&lt;b style=&quot;background-color: transparent;&quot;&gt;&lt;font style=&quot;color: rgb(153, 51, 255);&quot;&gt;&lt;br&gt;&lt;/font&gt;&lt;/b&gt;&lt;/div&gt;&lt;div&gt;&lt;b style=&quot;background-color: transparent;&quot;&gt;&lt;font style=&quot;color: rgb(153, 51, 255);&quot;&gt;&lt;br&gt;&lt;/font&gt;&lt;/b&gt;&lt;/div&gt;&lt;div&gt;&lt;b style=&quot;background-color: transparent;&quot;&gt;&lt;font style=&quot;color: rgb(153, 51, 255);&quot;&gt;&lt;br&gt;&lt;/font&gt;&lt;/b&gt;&lt;/div&gt;&lt;div&gt;&lt;b style=&quot;background-color: transparent;&quot;&gt;&lt;font style=&quot;color: rgb(153, 51, 255);&quot;&gt;&lt;br&gt;&lt;/font&gt;&lt;/b&gt;&lt;/div&gt;&lt;div&gt;&lt;b style=&quot;background-color: transparent;&quot;&gt;&lt;font style=&quot;color: rgb(153, 51, 255);&quot;&gt;&lt;br&gt;&lt;/font&gt;&lt;/b&gt;&lt;/div&gt;&lt;div&gt;&lt;br&gt;&lt;/div&gt;&lt;div&gt;&lt;br&gt;&lt;/div&gt;" style="rounded=1;whiteSpace=wrap;html=1;fillColor=#dae8fc;strokeColor=#6c8ebf;" parent="1" vertex="1">
          <mxGeometry x="-3224" y="1194" width="276" height="150" as="geometry" />
        </mxCell>
        <mxCell id="-rZxHQYXAFOoNfdk5uPC-4" value="&lt;b&gt;&lt;font style=&quot;font-size: 10px;&quot;&gt;&amp;nbsp; &lt;font style=&quot;color: rgb(0, 0, 0);&quot;&gt;SQL&lt;/font&gt;&lt;/font&gt;&lt;/b&gt;" style="swimlane;fontStyle=0;childLayout=stackLayout;horizontal=1;startSize=20;horizontalStack=0;resizeParent=1;resizeParentMax=0;resizeLast=0;collapsible=0;marginBottom=0;whiteSpace=wrap;html=1;fillColor=#ffe6cc;strokeColor=#d79b00;rounded=0;align=left;shadow=0;glass=0;verticalAlign=middle;fontFamily=Helvetica;fontSize=12;fontColor=light-dark(#ff0000, #ededed);" parent="1" vertex="1">
          <mxGeometry x="-3204" y="1222" width="234" height="105" as="geometry">
            <mxRectangle x="-3715" y="1075" width="54" height="30" as="alternateBounds" />
          </mxGeometry>
        </mxCell>
        <mxCell id="Nkz8KNjNWd7tfIoJqmHA-6" value="•&amp;nbsp; Ajout de l&#39;attribut &lt;span style=&quot;background-color: rgb(230, 255, 204);&quot;&gt;metier_data&lt;/span&gt;&amp;nbsp;pour savoir si une&lt;div&gt;&amp;nbsp; &amp;nbsp; offre est&amp;nbsp;pour&amp;nbsp;&lt;span style=&quot;background-color: transparent; color: light-dark(rgb(0, 0, 0), rgb(237, 237, 237));&quot;&gt;un &quot;DE&quot;, un &quot;DA&quot; ou un &quot;DS&quot;&lt;/span&gt;&lt;/div&gt;" style="text;strokeColor=none;fillColor=#f5f5f5;align=left;verticalAlign=middle;spacingLeft=4;spacingRight=4;overflow=hidden;points=[[0,0.5],[1,0.5]];portConstraint=eastwest;rotatable=0;whiteSpace=wrap;html=1;fontFamily=Helvetica;fontSize=10;fontColor=#000000;fontStyle=0;" parent="-rZxHQYXAFOoNfdk5uPC-4" vertex="1">
          <mxGeometry y="20" width="234" height="35" as="geometry" />
        </mxCell>
        <mxCell id="QggpIPPhaChL-2-UPi9C-3" value="•&amp;nbsp; Ajout des attributs &lt;span style=&quot;background-color: rgb(230, 255, 204);&quot;&gt;salaire_min&lt;/span&gt;&amp;nbsp;et &lt;span style=&quot;background-color: rgb(230, 255, 204);&quot;&gt;salaire_max&lt;/span&gt;" style="text;strokeColor=none;fillColor=#f5f5f5;align=left;verticalAlign=middle;spacingLeft=4;spacingRight=4;overflow=hidden;points=[[0,0.5],[1,0.5]];portConstraint=eastwest;rotatable=0;whiteSpace=wrap;html=1;fontFamily=Helvetica;fontSize=10;fontColor=#000000;fontStyle=0;" parent="-rZxHQYXAFOoNfdk5uPC-4" vertex="1">
          <mxGeometry y="55" width="234" height="25" as="geometry" />
        </mxCell>
        <mxCell id="al_ry9A8c0T3z5jMKmv0-1" value="•&amp;nbsp; Ajout de l&#39;attribut &lt;span style=&quot;background-color: rgb(230, 255, 204);&quot;&gt;liste_mots_cles&lt;/span&gt;" style="text;strokeColor=none;fillColor=#f5f5f5;align=left;verticalAlign=middle;spacingLeft=4;spacingRight=4;overflow=hidden;points=[[0,0.5],[1,0.5]];portConstraint=eastwest;rotatable=0;whiteSpace=wrap;html=1;fontFamily=Helvetica;fontSize=10;fontColor=#000000;fontStyle=0;" parent="-rZxHQYXAFOoNfdk5uPC-4" vertex="1">
          <mxGeometry y="80" width="234" height="25" as="geometry" />
        </mxCell>
        <mxCell id="-rZxHQYXAFOoNfdk5uPC-9" value="&lt;b&gt;&amp;nbsp; SQL&lt;/b&gt;" style="swimlane;fontStyle=0;childLayout=stackLayout;horizontal=1;startSize=20;horizontalStack=0;resizeParent=1;resizeParentMax=0;resizeLast=0;collapsible=0;marginBottom=0;whiteSpace=wrap;html=1;fillColor=#ffe6cc;strokeColor=#d79b00;rounded=0;align=left;swimlaneLine=1;glass=0;shadow=0;swimlaneHead=1;swimlaneBody=1;connectable=1;allowArrows=1;container=1;verticalAlign=middle;fontFamily=Helvetica;fontSize=10;fontColor=default;" parent="1" vertex="1">
          <mxGeometry x="-3152.5" y="1102.5" width="143" height="45" as="geometry">
            <mxRectangle x="-3925" y="994" width="54" height="30" as="alternateBounds" />
          </mxGeometry>
        </mxCell>
        <mxCell id="-rZxHQYXAFOoNfdk5uPC-10" value="&lt;font style=&quot;font-size: 10px; color: rgb(0, 0, 0);&quot;&gt;•&amp;nbsp; Création de requêtes SQL&lt;/font&gt;" style="text;align=left;verticalAlign=middle;spacingLeft=4;spacingRight=4;overflow=hidden;points=[[0,0.5],[1,0.5]];portConstraint=eastwest;rotatable=0;whiteSpace=wrap;html=1;fontFamily=Helvetica;fontSize=12;fontStyle=0;fillColor=#f5f5f5;fontColor=#333333;strokeColor=none;" parent="-rZxHQYXAFOoNfdk5uPC-9" vertex="1">
          <mxGeometry y="20" width="143" height="25" as="geometry" />
        </mxCell>
        <mxCell id="-rZxHQYXAFOoNfdk5uPC-12" style="edgeStyle=orthogonalEdgeStyle;rounded=0;orthogonalLoop=1;jettySize=auto;html=1;curved=1;exitX=0.001;exitY=0.093;exitDx=0;exitDy=0;exitPerimeter=0;entryX=1;entryY=0.5;entryDx=0;entryDy=0;" parent="1" source="-rZxHQYXAFOoNfdk5uPC-4" target="QMZ0epN5G2BQHD_irtJm-1" edge="1">
          <mxGeometry relative="1" as="geometry">
            <mxPoint x="-3289" y="1187" as="sourcePoint" />
            <mxPoint x="-3263" y="1287" as="targetPoint" />
          </mxGeometry>
        </mxCell>
        <mxCell id="Nkz8KNjNWd7tfIoJqmHA-4" style="edgeStyle=orthogonalEdgeStyle;rounded=0;orthogonalLoop=1;jettySize=auto;html=1;entryX=0.005;entryY=0.156;entryDx=0;entryDy=0;curved=1;exitX=1;exitY=0.25;exitDx=0;exitDy=0;entryPerimeter=0;" parent="1" target="ZqSi49jVPxYIq9pt5e5S-31" edge="1" source="ZqSi49jVPxYIq9pt5e5S-24">
          <mxGeometry relative="1" as="geometry">
            <mxPoint x="-3029" y="1180" as="sourcePoint" />
            <mxPoint x="-2861.3" y="1283.51" as="targetPoint" />
          </mxGeometry>
        </mxCell>
        <mxCell id="Nkz8KNjNWd7tfIoJqmHA-5" style="edgeStyle=orthogonalEdgeStyle;rounded=0;orthogonalLoop=1;jettySize=auto;html=1;entryX=0;entryY=0.25;entryDx=0;entryDy=0;curved=1;exitX=0.999;exitY=0.333;exitDx=0;exitDy=0;exitPerimeter=0;" parent="1" target="-rZxHQYXAFOoNfdk5uPC-9" edge="1" source="ZqSi49jVPxYIq9pt5e5S-24">
          <mxGeometry relative="1" as="geometry">
            <mxPoint x="-3301" y="1432" as="sourcePoint" />
            <mxPoint x="-2970" y="1281" as="targetPoint" />
          </mxGeometry>
        </mxCell>
        <mxCell id="QcCtQgSL87m4hG3FGIs5-1" value="1 fichier .csv avec le code et le nom des&lt;div&gt;&lt;div&gt;&amp;nbsp; &lt;span style=&quot;background-color: transparent; color: light-dark(rgb(0, 0, 0), rgb(255, 255, 255));&quot;&gt;communes, v&lt;/span&gt;&lt;span style=&quot;background-color: transparent; color: light-dark(rgb(0, 0, 0), rgb(255, 255, 255));&quot;&gt;illes,&amp;nbsp;&lt;/span&gt;&lt;span style=&quot;background-color: transparent; color: light-dark(rgb(0, 0, 0), rgb(255, 255, 255));&quot;&gt;départements, r&lt;/span&gt;&lt;span style=&quot;background-color: transparent; color: light-dark(rgb(0, 0, 0), rgb(255, 255, 255));&quot;&gt;égions&lt;/span&gt;&lt;/div&gt;&lt;/div&gt;" style="text;html=1;align=center;verticalAlign=middle;whiteSpace=wrap;rounded=0;fontSize=10;" parent="1" vertex="1">
          <mxGeometry x="-4035.5" y="1100" width="191" height="47" as="geometry" />
        </mxCell>
        <mxCell id="qPR0wcIL-JMc3A2nSYoO-10" value="" style="html=1;verticalLabelPosition=bottom;align=center;labelBackgroundColor=#ffffff;verticalAlign=top;strokeWidth=2;strokeColor=#9933FF;shadow=0;dashed=0;shape=mxgraph.ios7.icons.reload;fillColor=none;gradientColor=default;" parent="1" vertex="1">
          <mxGeometry x="-4014" y="1218" width="14" height="14" as="geometry" />
        </mxCell>
        <mxCell id="qPR0wcIL-JMc3A2nSYoO-11" value="" style="html=1;verticalLabelPosition=bottom;align=center;labelBackgroundColor=#ffffff;verticalAlign=top;strokeWidth=2;strokeColor=#9933FF;shadow=0;dashed=0;shape=mxgraph.ios7.icons.reload;fillColor=none;gradientColor=default;" parent="1" vertex="1">
          <mxGeometry x="-4014" y="1242" width="14" height="14" as="geometry" />
        </mxCell>
        <mxCell id="qPR0wcIL-JMc3A2nSYoO-12" value="" style="html=1;verticalLabelPosition=bottom;align=center;labelBackgroundColor=#ffffff;verticalAlign=top;strokeWidth=2;strokeColor=#9933FF;shadow=0;dashed=0;shape=mxgraph.ios7.icons.reload;fillColor=none;gradientColor=default;" parent="1" vertex="1">
          <mxGeometry x="-4015" y="1277" width="14" height="14" as="geometry" />
        </mxCell>
        <mxCell id="qPR0wcIL-JMc3A2nSYoO-14" value="" style="html=1;verticalLabelPosition=bottom;align=center;labelBackgroundColor=#ffffff;verticalAlign=top;strokeWidth=2;strokeColor=#9933FF;shadow=0;dashed=0;shape=mxgraph.ios7.icons.reload;fillColor=none;gradientColor=default;" parent="1" vertex="1">
          <mxGeometry x="-3204" y="1246" width="14" height="14" as="geometry" />
        </mxCell>
        <mxCell id="qPR0wcIL-JMc3A2nSYoO-15" value="" style="html=1;verticalLabelPosition=bottom;align=center;labelBackgroundColor=#ffffff;verticalAlign=top;strokeWidth=2;strokeColor=#9933FF;shadow=0;dashed=0;shape=mxgraph.ios7.icons.reload;fillColor=none;gradientColor=default;" parent="1" vertex="1">
          <mxGeometry x="-3204" y="1282" width="14" height="14" as="geometry" />
        </mxCell>
        <mxCell id="cfoz-KQ_ULbxHi0MdSnB-2" value="" style="html=1;verticalLabelPosition=bottom;align=center;labelBackgroundColor=#ffffff;verticalAlign=top;strokeWidth=2;strokeColor=#9933FF;shadow=0;dashed=0;shape=mxgraph.ios7.icons.reload;fillColor=none;gradientColor=default;" parent="1" vertex="1">
          <mxGeometry x="-4014" y="1193" width="14" height="14" as="geometry" />
        </mxCell>
        <mxCell id="cfoz-KQ_ULbxHi0MdSnB-3" value="" style="html=1;verticalLabelPosition=bottom;align=center;labelBackgroundColor=#ffffff;verticalAlign=top;strokeWidth=2;strokeColor=#9933FF;shadow=0;dashed=0;shape=mxgraph.ios7.icons.reload;fillColor=none;gradientColor=default;" parent="1" vertex="1">
          <mxGeometry x="-3794" y="1044" width="14" height="14" as="geometry" />
        </mxCell>
        <mxCell id="cfoz-KQ_ULbxHi0MdSnB-4" value="" style="html=1;verticalLabelPosition=bottom;align=center;labelBackgroundColor=#ffffff;verticalAlign=top;strokeWidth=2;strokeColor=#9933FF;shadow=0;dashed=0;shape=mxgraph.ios7.icons.reload;fillColor=none;gradientColor=default;" parent="1" vertex="1">
          <mxGeometry x="-3464" y="1248" width="14" height="14" as="geometry" />
        </mxCell>
        <mxCell id="al_ry9A8c0T3z5jMKmv0-2" value="" style="html=1;verticalLabelPosition=bottom;align=center;labelBackgroundColor=#ffffff;verticalAlign=top;strokeWidth=2;strokeColor=#9933FF;shadow=0;dashed=0;shape=mxgraph.ios7.icons.reload;fillColor=none;gradientColor=default;" parent="1" vertex="1">
          <mxGeometry x="-3204" y="1307" width="14" height="14" as="geometry" />
        </mxCell>
        <mxCell id="al_ry9A8c0T3z5jMKmv0-4" style="edgeStyle=orthogonalEdgeStyle;rounded=0;orthogonalLoop=1;jettySize=auto;html=1;entryX=0.453;entryY=0.01;entryDx=0;entryDy=0;entryPerimeter=0;curved=1;exitX=0.5;exitY=1;exitDx=0;exitDy=0;" parent="1" source="BL1sSyGnwAxIdbxrwCoB-6" target="eYIj9YyXecUdHDmmm4ep-19" edge="1">
          <mxGeometry relative="1" as="geometry">
            <Array as="points">
              <mxPoint x="-3911" y="1103" />
              <mxPoint x="-3832" y="1103" />
            </Array>
          </mxGeometry>
        </mxCell>
        <mxCell id="QMZ0epN5G2BQHD_irtJm-3" value="" style="html=1;verticalLabelPosition=bottom;align=center;labelBackgroundColor=#ffffff;verticalAlign=top;strokeWidth=2;strokeColor=#9933FF;shadow=0;dashed=0;shape=mxgraph.ios7.icons.reload;fillColor=none;gradientColor=default;" vertex="1" parent="1">
          <mxGeometry x="-3464" y="1283" width="14" height="14" as="geometry" />
        </mxCell>
      </root>
    </mxGraphModel>
  </diagram>
</mxfile>
